<svg xmlns="http://www.w3.org/2000/svg" fill="none" viewBox="-0.5 -0.5 24 24" id="Google-Cloud--Streamline-Svg-Logos.svg" height="24" width="24"><desc>Google Cloud Streamline Icon: https://streamlinehq.com</desc><path fill="#EA4335" d="m15.216919791666667 7.446273958333334 1.9576354166666665 -1.9576354166666665 0.13047708333333333 -0.8242864583333334C13.737684375 1.4205614583333332 8.066938541666666 1.7883697916666668 4.851131250000001 5.431809375c-0.8932625000000001 1.011928125 -1.55595 2.2735499999999997 -1.9093354166666667 3.5763083333333334l0.701140625 -0.09878020833333334 3.915175 -0.6456291666666667 0.3022822916666667 -0.309134375c1.7415552083333334 -1.9126895833333333 4.68625 -2.1700020833333333 6.697096875 -0.5426083333333334l0.6594291666666667 0.034308333333333337Z" stroke-width="1"></path><path fill="#4285F4" d="M19.963377083333334 8.950545833333335c-0.4499854166666667 -1.6570302083333333 -1.3737708333333334 -3.146663541666667 -2.6582489583333335 -4.286145833333333L14.557610416666668 7.411917708333333c1.1601583333333332 0.9479833333333333 1.821096875 2.376115625 1.7927781250000001 3.874014583333333v0.4877197916666666c1.3504354166666666 0 2.44533125 1.0948000000000002 2.44533125 2.4452593750000005 0 1.35053125 -1.0948958333333334 2.4178989583333337 -2.44533125 2.4178989583333337H11.452897916666668l-0.48084375000000007 0.5220281250000001v2.932979166666667l0.48084375000000007 0.46016770833333337h4.8974906250000005c3.5126989583333335 0.02736041666666667 6.3825239583333335 -2.770565625 6.409884375000001 -6.283288541666667 0.01653125 -2.1291770833333334 -1.0332510416666667 -4.125265625 -2.796895833333333 -5.318151041666667Z" stroke-width="1"></path><path fill="#34A853" d="M6.562163541666667 20.552033333333334h4.890614583333334v-3.915270833333333h-4.890614583333334c-0.34847395833333333 -0.000071875 -0.6859270833333334 -0.07494166666666667 -1.0028000000000001 -0.21974583333333333l-0.6938333333333333 0.21289375 -1.971363541666667 1.9576354166666665 -0.171709375 0.66628125c1.1055333333333333 0.8347802083333334 2.4544114583333334 1.3041958333333334 3.83970625 1.29820625Z" stroke-width="1"></path><path fill="#FBBC05" d="M6.562139583333334 7.851553125000001C3.049344791666667 7.87246875 0.21876138541666668 10.737190625 0.23969833333333335 14.249913541666666c0.011701250000000002 1.9615885416666667 0.9278391666666668 3.8081052083333335 2.482735 5.003913541666667l2.8369062499999997 -2.836834375c-1.2308114583333334 -0.5560729166666667 -1.7777322916666667 -2.004521875 -1.221659375 -3.2352375 0.5559770833333334 -1.2307395833333332 2.004521875 -1.7776604166666667 3.235165625 -1.221659375 0.5423447916666667 0.24499791666666668 0.9766614583333334 0.6793864583333333 1.221659375 1.221659375l2.8369062499999997 -2.836834375c-1.2070447916666667 -1.57794375 -3.0825989583333335 -2.5005072916666666 -5.069271875 -2.4933677083333334Z" stroke-width="1"></path></svg>