<svg width="960" height="780" xmlns="http://www.w3.org/2000/svg" font-family="Microsoft YaHei, SimHei, Arial, sans-serif">
  <!-- 背景 -->
  <rect width="960" height="780" fill="#f8fafc" rx="12"/>
  <!-- 标题 -->
  <text x="480" y="36" text-anchor="middle" font-size="18" font-weight="bold" fill="#1e293b">个人云存储网盘系统 E-R 图</text>

  <!-- ===================== 实体定义 ===================== -->

  <!-- 管理员 实体 -->
  <rect x="30" y="60" width="120" height="44" fill="#fef9c3" stroke="#eab308" stroke-width="2" rx="4"/>
  <text x="90" y="87" text-anchor="middle" font-size="14" font-weight="bold" fill="#1e293b">管理员</text>
  <!-- 属性 -->
  <ellipse cx="30" cy="130" rx="38" ry="16" fill="#fefce8" stroke="#eab308" stroke-width="1.2"/>
  <text x="30" y="134" text-anchor="middle" font-size="11" fill="#1e293b">管理员ID</text>
  <ellipse cx="90" cy="150" rx="32" ry="16" fill="#fefce8" stroke="#eab308" stroke-width="1.2"/>
  <text x="90" y="154" text-anchor="middle" font-size="11" fill="#1e293b">用户名</text>
  <ellipse cx="150" cy="130" rx="28" ry="16" fill="#fefce8" stroke="#eab308" stroke-width="1.2"/>
  <text x="150" y="134" text-anchor="middle" font-size="11" fill="#1e293b">密码</text>
  <!-- 连线 -->
  <line x1="60" y1="104" x2="38" y2="114" stroke="#eab308" stroke-width="1"/>
  <line x1="90" y1="104" x2="90" y2="134" stroke="#eab308" stroke-width="1"/>
  <line x1="120" y1="104" x2="144" y2="114" stroke="#eab308" stroke-width="1"/>

  <!-- 用户 实体 -->
  <rect x="390" y="60" width="120" height="44" fill="#dbeafe" stroke="#3b82f6" stroke-width="2" rx="4"/>
  <text x="450" y="87" text-anchor="middle" font-size="14" font-weight="bold" fill="#1e293b">用户</text>
  <!-- 属性 -->
  <ellipse cx="310" cy="48" rx="32" ry="16" fill="#eff6ff" stroke="#3b82f6" stroke-width="1.2"/>
  <text x="310" y="52" text-anchor="middle" font-size="11" fill="#1e293b">用户ID</text>
  <ellipse cx="370" cy="30" rx="32" ry="16" fill="#eff6ff" stroke="#3b82f6" stroke-width="1.2"/>
  <text x="370" y="34" text-anchor="middle" font-size="11" fill="#1e293b">用户名</text>
  <ellipse cx="450" cy="22" rx="28" ry="16" fill="#eff6ff" stroke="#3b82f6" stroke-width="1.2"/>
  <text x="450" y="26" text-anchor="middle" font-size="11" fill="#1e293b">密码</text>
  <ellipse cx="530" cy="30" rx="28" ry="16" fill="#eff6ff" stroke="#3b82f6" stroke-width="1.2"/>
  <text x="530" y="34" text-anchor="middle" font-size="11" fill="#1e293b">头像</text>
  <ellipse cx="590" cy="48" rx="28" ry="16" fill="#eff6ff" stroke="#3b82f6" stroke-width="1.2"/>
  <text x="590" y="52" text-anchor="middle" font-size="11" fill="#1e293b">状态</text>
  <ellipse cx="340" cy="110" rx="38" ry="16" fill="#eff6ff" stroke="#3b82f6" stroke-width="1.2"/>
  <text x="340" y="114" text-anchor="middle" font-size="11" fill="#1e293b">已用容量</text>
  <ellipse cx="560" cy="110" rx="38" ry="16" fill="#eff6ff" stroke="#3b82f6" stroke-width="1.2"/>
  <text x="560" y="114" text-anchor="middle" font-size="11" fill="#1e293b">容量上限</text>
  <!-- 连线 -->
  <line x1="410" y1="60" x2="332" y2="56" stroke="#3b82f6" stroke-width="1"/>
  <line x1="420" y1="60" x2="374" y2="46" stroke="#3b82f6" stroke-width="1"/>
  <line x1="450" y1="60" x2="450" y2="38" stroke="#3b82f6" stroke-width="1"/>
  <line x1="480" y1="60" x2="526" y2="46" stroke="#3b82f6" stroke-width="1"/>
  <line x1="490" y1="60" x2="584" y2="58" stroke="#3b82f6" stroke-width="1"/>
  <line x1="420" y1="104" x2="356" y2="104" stroke="#3b82f6" stroke-width="1"/>
  <line x1="480" y1="104" x2="540" y2="104" stroke="#3b82f6" stroke-width="1"/>

  <!-- 文件夹 实体 -->
  <rect x="180" y="310" width="120" height="44" fill="#dcfce7" stroke="#22c55e" stroke-width="2" rx="4"/>
  <text x="240" y="337" text-anchor="middle" font-size="14" font-weight="bold" fill="#1e293b">文件夹</text>
  <!-- 属性 -->
  <ellipse cx="118" cy="290" rx="38" ry="16" fill="#f0fdf4" stroke="#22c55e" stroke-width="1.2"/>
  <text x="118" y="294" text-anchor="middle" font-size="11" fill="#1e293b">文件夹ID</text>
  <ellipse cx="178" cy="272" rx="38" ry="16" fill="#f0fdf4" stroke="#22c55e" stroke-width="1.2"/>
  <text x="178" y="276" text-anchor="middle" font-size="11" fill="#1e293b">文件夹名</text>
  <ellipse cx="248" cy="265" rx="38" ry="16" fill="#f0fdf4" stroke="#22c55e" stroke-width="1.2"/>
  <text x="248" y="269" text-anchor="middle" font-size="11" fill="#1e293b">创建时间</text>
  <ellipse cx="318" cy="272" rx="44" ry="16" fill="#f0fdf4" stroke="#22c55e" stroke-width="1.2"/>
  <text x="318" y="276" text-anchor="middle" font-size="11" fill="#1e293b">父级目录ID</text>
  <!-- 连线 -->
  <line x1="200" y1="310" x2="128" y2="300" stroke="#22c55e" stroke-width="1"/>
  <line x1="210" y1="310" x2="182" y2="288" stroke="#22c55e" stroke-width="1"/>
  <line x1="240" y1="310" x2="246" y2="281" stroke="#22c55e" stroke-width="1"/>
  <line x1="270" y1="310" x2="308" y2="288" stroke="#22c55e" stroke-width="1"/>

  <!-- 文件 实体 -->
  <rect x="590" y="310" width="120" height="44" fill="#dcfce7" stroke="#22c55e" stroke-width="2" rx="4"/>
  <text x="650" y="337" text-anchor="middle" font-size="14" font-weight="bold" fill="#1e293b">文件</text>
  <!-- 属性 -->
  <ellipse cx="560" cy="265" rx="32" ry="16" fill="#f0fdf4" stroke="#22c55e" stroke-width="1.2"/>
  <text x="560" y="269" text-anchor="middle" font-size="11" fill="#1e293b">文件ID</text>
  <ellipse cx="620" cy="258" rx="32" ry="16" fill="#f0fdf4" stroke="#22c55e" stroke-width="1.2"/>
  <text x="620" y="262" text-anchor="middle" font-size="11" fill="#1e293b">文件名</text>
  <ellipse cx="690" cy="255" rx="38" ry="16" fill="#f0fdf4" stroke="#22c55e" stroke-width="1.2"/>
  <text x="690" y="259" text-anchor="middle" font-size="11" fill="#1e293b">文件大小</text>
  <ellipse cx="760" cy="262" rx="38" ry="16" fill="#f0fdf4" stroke="#22c55e" stroke-width="1.2"/>
  <text x="760" y="266" text-anchor="middle" font-size="11" fill="#1e293b">文件类型</text>
  <ellipse cx="820" cy="290" rx="38" ry="16" fill="#f0fdf4" stroke="#22c55e" stroke-width="1.2"/>
  <text x="820" y="294" text-anchor="middle" font-size="11" fill="#1e293b">存储路径</text>
  <ellipse cx="830" cy="332" rx="28" ry="16" fill="#f0fdf4" stroke="#22c55e" stroke-width="1.2"/>
  <text x="830" y="336" text-anchor="middle" font-size="11" fill="#1e293b">MD5</text>
  <ellipse cx="820" cy="375" rx="38" ry="16" fill="#f0fdf4" stroke="#22c55e" stroke-width="1.2"/>
  <text x="820" y="379" text-anchor="middle" font-size="11" fill="#1e293b">上传时间</text>
  <!-- 连线 -->
  <line x1="610" y1="310" x2="568" y2="281" stroke="#22c55e" stroke-width="1"/>
  <line x1="625" y1="310" x2="622" y2="274" stroke="#22c55e" stroke-width="1"/>
  <line x1="650" y1="310" x2="690" y2="271" stroke="#22c55e" stroke-width="1"/>
  <line x1="670" y1="310" x2="754" y2="278" stroke="#22c55e" stroke-width="1"/>
  <line x1="710" y1="318" x2="790" y2="300" stroke="#22c55e" stroke-width="1"/>
  <line x1="710" y1="332" x2="802" y2="332" stroke="#22c55e" stroke-width="1"/>
  <line x1="710" y1="346" x2="790" y2="364" stroke="#22c55e" stroke-width="1"/>

  <!-- 回收站 实体 -->
  <rect x="180" y="560" width="120" height="44" fill="#fee2e2" stroke="#ef4444" stroke-width="2" rx="4"/>
  <text x="240" y="587" text-anchor="middle" font-size="14" font-weight="bold" fill="#1e293b">回收站</text>
  <!-- 属性 -->
  <ellipse cx="148" cy="648" rx="32" ry="16" fill="#fef2f2" stroke="#ef4444" stroke-width="1.2"/>
  <text x="148" y="652" text-anchor="middle" font-size="11" fill="#1e293b">记录ID</text>
  <ellipse cx="220" cy="660" rx="38" ry="16" fill="#fef2f2" stroke="#ef4444" stroke-width="1.2"/>
  <text x="220" y="664" text-anchor="middle" font-size="11" fill="#1e293b">删除时间</text>
  <ellipse cx="300" cy="655" rx="38" ry="16" fill="#fef2f2" stroke="#ef4444" stroke-width="1.2"/>
  <text x="300" y="659" text-anchor="middle" font-size="11" fill="#1e293b">过期时间</text>
  <!-- 连线 -->
  <line x1="210" y1="604" x2="158" y2="632" stroke="#ef4444" stroke-width="1"/>
  <line x1="235" y1="604" x2="224" y2="644" stroke="#ef4444" stroke-width="1"/>
  <line x1="262" y1="604" x2="292" y2="639" stroke="#ef4444" stroke-width="1"/>

  <!-- 分享 实体 -->
  <rect x="590" y="560" width="120" height="44" fill="#ffedd5" stroke="#f97316" stroke-width="2" rx="4"/>
  <text x="650" y="587" text-anchor="middle" font-size="14" font-weight="bold" fill="#1e293b">分享</text>
  <!-- 属性 -->
  <ellipse cx="555" cy="648" rx="32" ry="16" fill="#fff7ed" stroke="#f97316" stroke-width="1.2"/>
  <text x="555" y="652" text-anchor="middle" font-size="11" fill="#1e293b">分享ID</text>
  <ellipse cx="610" cy="660" rx="32" ry="16" fill="#fff7ed" stroke="#f97316" stroke-width="1.2"/>
  <text x="610" y="664" text-anchor="middle" font-size="11" fill="#1e293b">提取码</text>
  <ellipse cx="670" cy="668" rx="38" ry="16" fill="#fff7ed" stroke="#f97316" stroke-width="1.2"/>
  <text x="670" y="672" text-anchor="middle" font-size="11" fill="#1e293b">创建时间</text>
  <ellipse cx="742" cy="660" rx="38" ry="16" fill="#fff7ed" stroke="#f97316" stroke-width="1.2"/>
  <text x="742" y="664" text-anchor="middle" font-size="11" fill="#1e293b">过期时间</text>
  <ellipse cx="800" cy="640" rx="38" ry="16" fill="#fff7ed" stroke="#f97316" stroke-width="1.2"/>
  <text x="800" y="644" text-anchor="middle" font-size="11" fill="#1e293b">分享状态</text>
  <!-- 连线 -->
  <line x1="610" y1="604" x2="563" y2="632" stroke="#f97316" stroke-width="1"/>
  <line x1="630" y1="604" x2="614" y2="644" stroke="#f97316" stroke-width="1"/>
  <line x1="650" y1="604" x2="668" y2="652" stroke="#f97316" stroke-width="1"/>
  <line x1="675" y1="604" x2="738" y2="644" stroke="#f97316" stroke-width="1"/>
  <line x1="700" y1="604" x2="790" y2="626" stroke="#f97316" stroke-width="1"/>

  <!-- ===================== 关系菱形 ===================== -->

  <!-- 管理 关系（管理员 - 用户） -->
  <polygon points="230,82 265,96 230,110 195,96" fill="#fef9c3" stroke="#eab308" stroke-width="1.5"/>
  <text x="230" y="100" text-anchor="middle" font-size="12" fill="#1e293b">管理</text>
  <line x1="150" y1="82" x2="195" y2="92" stroke="#64748b" stroke-width="1.5"/>
  <line x1="265" y1="96" x2="390" y2="86" stroke="#64748b" stroke-width="1.5"/>
  <text x="168" y="78" font-size="11" fill="#64748b">1</text>
  <text x="355" y="82" font-size="11" fill="#64748b">N</text>

  <!-- 拥有文件夹 关系（用户 - 文件夹） -->
  <polygon points="390,240 425,254 390,268 355,254" fill="#dbeafe" stroke="#3b82f6" stroke-width="1.5"/>
  <text x="390" y="258" text-anchor="middle" font-size="12" fill="#1e293b">拥有</text>
  <line x1="430" y1="104" x2="400" y2="240" stroke="#64748b" stroke-width="1.5"/>
  <line x1="355" y1="256" x2="300" y2="314" stroke="#64748b" stroke-width="1.5"/>
  <text x="426" y="165" font-size="11" fill="#64748b">1</text>
  <text x="322" y="308" font-size="11" fill="#64748b">N</text>

  <!-- 拥有文件 关系（用户 - 文件） -->
  <polygon points="510,240 545,254 510,268 475,254" fill="#dbeafe" stroke="#3b82f6" stroke-width="1.5"/>
  <text x="510" y="258" text-anchor="middle" font-size="12" fill="#1e293b">拥有</text>
  <line x1="468" y1="104" x2="500" y2="240" stroke="#64748b" stroke-width="1.5"/>
  <line x1="545" y1="256" x2="595" y2="318" stroke="#64748b" stroke-width="1.5"/>
  <text x="476" y="165" font-size="11" fill="#64748b">1</text>
  <text x="574" y="312" font-size="11" fill="#64748b">N</text>

  <!-- 包含文件 关系（文件夹 - 文件） -->
  <polygon points="420,332 455,346 420,360 385,346" fill="#dcfce7" stroke="#22c55e" stroke-width="1.5"/>
  <text x="420" y="350" text-anchor="middle" font-size="12" fill="#1e293b">包含</text>
  <line x1="300" y1="332" x2="385" y2="344" stroke="#64748b" stroke-width="1.5"/>
  <line x1="455" y1="346" x2="590" y2="334" stroke="#64748b" stroke-width="1.5"/>
  <text x="316" y="338" font-size="11" fill="#64748b">1</text>
  <text x="568" y="330" font-size="11" fill="#64748b">N</text>

  <!-- 移入回收站 关系（文件/文件夹 - 回收站） -->
  <polygon points="390,480 425,494 390,508 355,494" fill="#fee2e2" stroke="#ef4444" stroke-width="1.5"/>
  <text x="390" y="490" text-anchor="middle" font-size="12" fill="#1e293b">移入</text>
  <text x="390" y="503" text-anchor="middle" font-size="11" fill="#64748b">回收站</text>
  <line x1="240" y1="354" x2="360" y2="482" stroke="#64748b" stroke-width="1.5"/>
  <line x1="355" y1="494" x2="300" y2="562" stroke="#64748b" stroke-width="1.5"/>
  <text x="276" y="428" font-size="11" fill="#64748b">N</text>
  <text x="314" y="558" font-size="11" fill="#64748b">1</text>

  <!-- 创建分享 关系（用户 - 分享） -->
  <polygon points="650,450 685,464 650,478 615,464" fill="#ffedd5" stroke="#f97316" stroke-width="1.5"/>
  <text x="650" y="468" text-anchor="middle" font-size="12" fill="#1e293b">创建</text>
  <line x1="470" y1="100" x2="644" y2="450" stroke="#64748b" stroke-width="1.5"/>
  <line x1="650" y1="478" x2="650" y2="560" stroke="#64748b" stroke-width="1.5"/>
  <text x="592" y="295" font-size="11" fill="#64748b">1</text>
  <text x="654" y="545" font-size="11" fill="#64748b">N</text>

  <!-- 关联分享 关系（文件/文件夹 - 分享） -->
  <polygon points="560,464 595,478 560,492 525,478" fill="#ffedd5" stroke="#f97316" stroke-width="1.5"/>
  <text x="560" y="482" text-anchor="middle" font-size="12" fill="#1e293b">关联</text>
  <line x1="300" y1="348" x2="524" y2="472" stroke="#64748b" stroke-width="1.5" stroke-dasharray="5,3"/>
  <line x1="595" y1="478" x2="615" y2="476" stroke="#64748b" stroke-width="1.5"/>
  <line x1="650" y1="354" x2="574" y2="465" stroke="#64748b" stroke-width="1.5" stroke-dasharray="5,3"/>
  <text x="350" y="425" font-size="11" fill="#64748b">N</text>
  <text x="612" y="425" font-size="11" fill="#64748b">N</text>

  <!-- 图例 -->
  <rect x="30" y="710" width="14" height="14" fill="#dbeafe" stroke="#3b82f6" stroke-width="1" rx="2"/>
  <text x="50" y="722" font-size="11" fill="#475569">用户相关</text>
  <rect x="140" y="710" width="14" height="14" fill="#dcfce7" stroke="#22c55e" stroke-width="1" rx="2"/>
  <text x="160" y="722" font-size="11" fill="#475569">文件/文件夹</text>
  <rect x="270" y="710" width="14" height="14" fill="#fee2e2" stroke="#ef4444" stroke-width="1" rx="2"/>
  <text x="290" y="722" font-size="11" fill="#475569">回收站</text>
  <rect x="370" y="710" width="14" height="14" fill="#ffedd5" stroke="#f97316" stroke-width="1" rx="2"/>
  <text x="390" y="722" font-size="11" fill="#475569">分享</text>
  <rect x="450" y="710" width="14" height="14" fill="#fef9c3" stroke="#eab308" stroke-width="1" rx="2"/>
  <text x="470" y="722" font-size="11" fill="#475569">管理员</text>
  <line x1="540" y1="717" x2="570" y2="717" stroke="#64748b" stroke-width="1.5" stroke-dasharray="5,3"/>
  <text x="578" y="722" font-size="11" fill="#475569">多对多关联</text>
</svg>
